<mxfile host="app.diagrams.net" modified="2024-05-07T02:58:38.979Z" agent="Mozilla/5.0 (Windows NT 10.0; Win64; x64) AppleWebKit/537.36 (KHTML, like Gecko) Chrome/124.0.0.0 Safari/537.36" etag="i49rAYQcAT8vQ8gtPVmr" version="24.3.1" type="github">
  <diagram name="第 1 页" id="Q9xpHyB521G7ify1aTwh">
    <mxGraphModel dx="1841" dy="982" grid="1" gridSize="10" guides="1" tooltips="1" connect="1" arrows="1" fold="1" page="1" pageScale="1" pageWidth="827" pageHeight="1169" math="0" shadow="0">
      <root>
        <mxCell id="0" />
        <mxCell id="1" parent="0" />
        <mxCell id="dLgP1H3lgliKayTo4XHy-1" value="" style="childLayout=tableLayout;recursiveResize=0;shadow=0;fillColor=none;" vertex="1" parent="1">
          <mxGeometry x="70" y="190" width="390" height="375" as="geometry" />
        </mxCell>
        <mxCell id="dLgP1H3lgliKayTo4XHy-2" value="" style="shape=tableRow;horizontal=0;startSize=0;swimlaneHead=0;swimlaneBody=0;top=0;left=0;bottom=0;right=0;dropTarget=0;collapsible=0;recursiveResize=0;expand=0;fontStyle=0;fillColor=none;strokeColor=inherit;" vertex="1" parent="dLgP1H3lgliKayTo4XHy-1">
          <mxGeometry width="390" height="47" as="geometry" />
        </mxCell>
        <mxCell id="dLgP1H3lgliKayTo4XHy-66" value="加法" style="connectable=0;recursiveResize=0;strokeColor=inherit;fillColor=none;align=center;whiteSpace=wrap;html=1;" vertex="1" parent="dLgP1H3lgliKayTo4XHy-2">
          <mxGeometry width="49" height="47" as="geometry">
            <mxRectangle width="49" height="47" as="alternateBounds" />
          </mxGeometry>
        </mxCell>
        <mxCell id="dLgP1H3lgliKayTo4XHy-58" value="0" style="connectable=0;recursiveResize=0;strokeColor=#6c8ebf;fillColor=#dae8fc;align=center;whiteSpace=wrap;html=1;" vertex="1" parent="dLgP1H3lgliKayTo4XHy-2">
          <mxGeometry x="49" width="49" height="47" as="geometry">
            <mxRectangle width="49" height="47" as="alternateBounds" />
          </mxGeometry>
        </mxCell>
        <mxCell id="dLgP1H3lgliKayTo4XHy-50" value="1" style="connectable=0;recursiveResize=0;strokeColor=#6c8ebf;fillColor=#dae8fc;align=center;whiteSpace=wrap;html=1;" vertex="1" parent="dLgP1H3lgliKayTo4XHy-2">
          <mxGeometry x="98" width="48" height="47" as="geometry">
            <mxRectangle width="48" height="47" as="alternateBounds" />
          </mxGeometry>
        </mxCell>
        <mxCell id="dLgP1H3lgliKayTo4XHy-42" value="2" style="connectable=0;recursiveResize=0;strokeColor=#6c8ebf;fillColor=#dae8fc;align=center;whiteSpace=wrap;html=1;" vertex="1" parent="dLgP1H3lgliKayTo4XHy-2">
          <mxGeometry x="146" width="49" height="47" as="geometry">
            <mxRectangle width="49" height="47" as="alternateBounds" />
          </mxGeometry>
        </mxCell>
        <mxCell id="dLgP1H3lgliKayTo4XHy-34" value="3" style="connectable=0;recursiveResize=0;strokeColor=#6c8ebf;fillColor=#dae8fc;align=center;whiteSpace=wrap;html=1;" vertex="1" parent="dLgP1H3lgliKayTo4XHy-2">
          <mxGeometry x="195" width="49" height="47" as="geometry">
            <mxRectangle width="49" height="47" as="alternateBounds" />
          </mxGeometry>
        </mxCell>
        <mxCell id="dLgP1H3lgliKayTo4XHy-3" value="4" style="connectable=0;recursiveResize=0;strokeColor=#6c8ebf;fillColor=#dae8fc;align=center;whiteSpace=wrap;html=1;" vertex="1" parent="dLgP1H3lgliKayTo4XHy-2">
          <mxGeometry x="244" width="49" height="47" as="geometry">
            <mxRectangle width="49" height="47" as="alternateBounds" />
          </mxGeometry>
        </mxCell>
        <mxCell id="dLgP1H3lgliKayTo4XHy-4" value="5" style="connectable=0;recursiveResize=0;strokeColor=#6c8ebf;fillColor=#dae8fc;align=center;whiteSpace=wrap;html=1;" vertex="1" parent="dLgP1H3lgliKayTo4XHy-2">
          <mxGeometry x="293" width="48" height="47" as="geometry">
            <mxRectangle width="48" height="47" as="alternateBounds" />
          </mxGeometry>
        </mxCell>
        <mxCell id="dLgP1H3lgliKayTo4XHy-5" value="6" style="connectable=0;recursiveResize=0;strokeColor=#6c8ebf;fillColor=#dae8fc;align=center;whiteSpace=wrap;html=1;" vertex="1" parent="dLgP1H3lgliKayTo4XHy-2">
          <mxGeometry x="341" width="49" height="47" as="geometry">
            <mxRectangle width="49" height="47" as="alternateBounds" />
          </mxGeometry>
        </mxCell>
        <mxCell id="dLgP1H3lgliKayTo4XHy-6" style="shape=tableRow;horizontal=0;startSize=0;swimlaneHead=0;swimlaneBody=0;top=0;left=0;bottom=0;right=0;dropTarget=0;collapsible=0;recursiveResize=0;expand=0;fontStyle=0;fillColor=none;strokeColor=inherit;" vertex="1" parent="dLgP1H3lgliKayTo4XHy-1">
          <mxGeometry y="47" width="390" height="46" as="geometry" />
        </mxCell>
        <mxCell id="dLgP1H3lgliKayTo4XHy-67" value="0" style="connectable=0;recursiveResize=0;strokeColor=#6c8ebf;fillColor=#dae8fc;align=center;whiteSpace=wrap;html=1;" vertex="1" parent="dLgP1H3lgliKayTo4XHy-6">
          <mxGeometry width="49" height="46" as="geometry">
            <mxRectangle width="49" height="46" as="alternateBounds" />
          </mxGeometry>
        </mxCell>
        <mxCell id="dLgP1H3lgliKayTo4XHy-59" value="0" style="connectable=0;recursiveResize=0;strokeColor=#b85450;fillColor=#f8cecc;align=center;whiteSpace=wrap;html=1;" vertex="1" parent="dLgP1H3lgliKayTo4XHy-6">
          <mxGeometry x="49" width="49" height="46" as="geometry">
            <mxRectangle width="49" height="46" as="alternateBounds" />
          </mxGeometry>
        </mxCell>
        <mxCell id="dLgP1H3lgliKayTo4XHy-51" value="1" style="connectable=0;recursiveResize=0;strokeColor=inherit;fillColor=none;align=center;whiteSpace=wrap;html=1;" vertex="1" parent="dLgP1H3lgliKayTo4XHy-6">
          <mxGeometry x="98" width="48" height="46" as="geometry">
            <mxRectangle width="48" height="46" as="alternateBounds" />
          </mxGeometry>
        </mxCell>
        <mxCell id="dLgP1H3lgliKayTo4XHy-43" value="2" style="connectable=0;recursiveResize=0;strokeColor=inherit;fillColor=none;align=center;whiteSpace=wrap;html=1;" vertex="1" parent="dLgP1H3lgliKayTo4XHy-6">
          <mxGeometry x="146" width="49" height="46" as="geometry">
            <mxRectangle width="49" height="46" as="alternateBounds" />
          </mxGeometry>
        </mxCell>
        <mxCell id="dLgP1H3lgliKayTo4XHy-35" value="3" style="connectable=0;recursiveResize=0;strokeColor=inherit;fillColor=none;align=center;whiteSpace=wrap;html=1;" vertex="1" parent="dLgP1H3lgliKayTo4XHy-6">
          <mxGeometry x="195" width="49" height="46" as="geometry">
            <mxRectangle width="49" height="46" as="alternateBounds" />
          </mxGeometry>
        </mxCell>
        <mxCell id="dLgP1H3lgliKayTo4XHy-7" value="4" style="connectable=0;recursiveResize=0;strokeColor=inherit;fillColor=none;align=center;whiteSpace=wrap;html=1;" vertex="1" parent="dLgP1H3lgliKayTo4XHy-6">
          <mxGeometry x="244" width="49" height="46" as="geometry">
            <mxRectangle width="49" height="46" as="alternateBounds" />
          </mxGeometry>
        </mxCell>
        <mxCell id="dLgP1H3lgliKayTo4XHy-8" value="5" style="connectable=0;recursiveResize=0;strokeColor=inherit;fillColor=none;align=center;whiteSpace=wrap;html=1;" vertex="1" parent="dLgP1H3lgliKayTo4XHy-6">
          <mxGeometry x="293" width="48" height="46" as="geometry">
            <mxRectangle width="48" height="46" as="alternateBounds" />
          </mxGeometry>
        </mxCell>
        <mxCell id="dLgP1H3lgliKayTo4XHy-9" value="6" style="connectable=0;recursiveResize=0;strokeColor=inherit;fillColor=none;align=center;whiteSpace=wrap;html=1;" vertex="1" parent="dLgP1H3lgliKayTo4XHy-6">
          <mxGeometry x="341" width="49" height="46" as="geometry">
            <mxRectangle width="49" height="46" as="alternateBounds" />
          </mxGeometry>
        </mxCell>
        <mxCell id="dLgP1H3lgliKayTo4XHy-10" style="shape=tableRow;horizontal=0;startSize=0;swimlaneHead=0;swimlaneBody=0;top=0;left=0;bottom=0;right=0;dropTarget=0;collapsible=0;recursiveResize=0;expand=0;fontStyle=0;fillColor=none;strokeColor=inherit;" vertex="1" parent="dLgP1H3lgliKayTo4XHy-1">
          <mxGeometry y="93" width="390" height="47" as="geometry" />
        </mxCell>
        <mxCell id="dLgP1H3lgliKayTo4XHy-68" value="1" style="connectable=0;recursiveResize=0;strokeColor=#6c8ebf;fillColor=#dae8fc;align=center;whiteSpace=wrap;html=1;" vertex="1" parent="dLgP1H3lgliKayTo4XHy-10">
          <mxGeometry width="49" height="47" as="geometry">
            <mxRectangle width="49" height="47" as="alternateBounds" />
          </mxGeometry>
        </mxCell>
        <mxCell id="dLgP1H3lgliKayTo4XHy-60" value="1" style="connectable=0;recursiveResize=0;strokeColor=inherit;fillColor=none;align=center;whiteSpace=wrap;html=1;" vertex="1" parent="dLgP1H3lgliKayTo4XHy-10">
          <mxGeometry x="49" width="49" height="47" as="geometry">
            <mxRectangle width="49" height="47" as="alternateBounds" />
          </mxGeometry>
        </mxCell>
        <mxCell id="dLgP1H3lgliKayTo4XHy-52" value="2" style="connectable=0;recursiveResize=0;strokeColor=inherit;fillColor=none;align=center;whiteSpace=wrap;html=1;" vertex="1" parent="dLgP1H3lgliKayTo4XHy-10">
          <mxGeometry x="98" width="48" height="47" as="geometry">
            <mxRectangle width="48" height="47" as="alternateBounds" />
          </mxGeometry>
        </mxCell>
        <mxCell id="dLgP1H3lgliKayTo4XHy-44" value="3" style="connectable=0;recursiveResize=0;strokeColor=inherit;fillColor=none;align=center;whiteSpace=wrap;html=1;" vertex="1" parent="dLgP1H3lgliKayTo4XHy-10">
          <mxGeometry x="146" width="49" height="47" as="geometry">
            <mxRectangle width="49" height="47" as="alternateBounds" />
          </mxGeometry>
        </mxCell>
        <mxCell id="dLgP1H3lgliKayTo4XHy-36" value="4" style="connectable=0;recursiveResize=0;strokeColor=inherit;fillColor=none;align=center;whiteSpace=wrap;html=1;" vertex="1" parent="dLgP1H3lgliKayTo4XHy-10">
          <mxGeometry x="195" width="49" height="47" as="geometry">
            <mxRectangle width="49" height="47" as="alternateBounds" />
          </mxGeometry>
        </mxCell>
        <mxCell id="dLgP1H3lgliKayTo4XHy-11" value="5" style="connectable=0;recursiveResize=0;strokeColor=inherit;fillColor=none;align=center;whiteSpace=wrap;html=1;" vertex="1" parent="dLgP1H3lgliKayTo4XHy-10">
          <mxGeometry x="244" width="49" height="47" as="geometry">
            <mxRectangle width="49" height="47" as="alternateBounds" />
          </mxGeometry>
        </mxCell>
        <mxCell id="dLgP1H3lgliKayTo4XHy-12" value="6" style="connectable=0;recursiveResize=0;strokeColor=inherit;fillColor=none;align=center;whiteSpace=wrap;html=1;" vertex="1" parent="dLgP1H3lgliKayTo4XHy-10">
          <mxGeometry x="293" width="48" height="47" as="geometry">
            <mxRectangle width="48" height="47" as="alternateBounds" />
          </mxGeometry>
        </mxCell>
        <mxCell id="dLgP1H3lgliKayTo4XHy-13" value="0" style="connectable=0;recursiveResize=0;strokeColor=#b85450;fillColor=#f8cecc;align=center;whiteSpace=wrap;html=1;" vertex="1" parent="dLgP1H3lgliKayTo4XHy-10">
          <mxGeometry x="341" width="49" height="47" as="geometry">
            <mxRectangle width="49" height="47" as="alternateBounds" />
          </mxGeometry>
        </mxCell>
        <mxCell id="dLgP1H3lgliKayTo4XHy-14" style="shape=tableRow;horizontal=0;startSize=0;swimlaneHead=0;swimlaneBody=0;top=0;left=0;bottom=0;right=0;dropTarget=0;collapsible=0;recursiveResize=0;expand=0;fontStyle=0;fillColor=none;strokeColor=inherit;" vertex="1" parent="dLgP1H3lgliKayTo4XHy-1">
          <mxGeometry y="140" width="390" height="47" as="geometry" />
        </mxCell>
        <mxCell id="dLgP1H3lgliKayTo4XHy-69" value="2" style="connectable=0;recursiveResize=0;strokeColor=#6c8ebf;fillColor=#dae8fc;align=center;whiteSpace=wrap;html=1;" vertex="1" parent="dLgP1H3lgliKayTo4XHy-14">
          <mxGeometry width="49" height="47" as="geometry">
            <mxRectangle width="49" height="47" as="alternateBounds" />
          </mxGeometry>
        </mxCell>
        <mxCell id="dLgP1H3lgliKayTo4XHy-61" value="2" style="connectable=0;recursiveResize=0;strokeColor=inherit;fillColor=none;align=center;whiteSpace=wrap;html=1;" vertex="1" parent="dLgP1H3lgliKayTo4XHy-14">
          <mxGeometry x="49" width="49" height="47" as="geometry">
            <mxRectangle width="49" height="47" as="alternateBounds" />
          </mxGeometry>
        </mxCell>
        <mxCell id="dLgP1H3lgliKayTo4XHy-53" value="3" style="connectable=0;recursiveResize=0;strokeColor=inherit;fillColor=none;align=center;whiteSpace=wrap;html=1;" vertex="1" parent="dLgP1H3lgliKayTo4XHy-14">
          <mxGeometry x="98" width="48" height="47" as="geometry">
            <mxRectangle width="48" height="47" as="alternateBounds" />
          </mxGeometry>
        </mxCell>
        <mxCell id="dLgP1H3lgliKayTo4XHy-45" value="4" style="connectable=0;recursiveResize=0;strokeColor=inherit;fillColor=none;align=center;whiteSpace=wrap;html=1;" vertex="1" parent="dLgP1H3lgliKayTo4XHy-14">
          <mxGeometry x="146" width="49" height="47" as="geometry">
            <mxRectangle width="49" height="47" as="alternateBounds" />
          </mxGeometry>
        </mxCell>
        <mxCell id="dLgP1H3lgliKayTo4XHy-37" value="5" style="connectable=0;recursiveResize=0;strokeColor=inherit;fillColor=none;align=center;whiteSpace=wrap;html=1;" vertex="1" parent="dLgP1H3lgliKayTo4XHy-14">
          <mxGeometry x="195" width="49" height="47" as="geometry">
            <mxRectangle width="49" height="47" as="alternateBounds" />
          </mxGeometry>
        </mxCell>
        <mxCell id="dLgP1H3lgliKayTo4XHy-15" value="6" style="connectable=0;recursiveResize=0;strokeColor=inherit;fillColor=none;align=center;whiteSpace=wrap;html=1;" vertex="1" parent="dLgP1H3lgliKayTo4XHy-14">
          <mxGeometry x="244" width="49" height="47" as="geometry">
            <mxRectangle width="49" height="47" as="alternateBounds" />
          </mxGeometry>
        </mxCell>
        <mxCell id="dLgP1H3lgliKayTo4XHy-16" value="0" style="connectable=0;recursiveResize=0;strokeColor=#b85450;fillColor=#f8cecc;align=center;whiteSpace=wrap;html=1;" vertex="1" parent="dLgP1H3lgliKayTo4XHy-14">
          <mxGeometry x="293" width="48" height="47" as="geometry">
            <mxRectangle width="48" height="47" as="alternateBounds" />
          </mxGeometry>
        </mxCell>
        <mxCell id="dLgP1H3lgliKayTo4XHy-17" value="1" style="connectable=0;recursiveResize=0;strokeColor=inherit;fillColor=none;align=center;whiteSpace=wrap;html=1;" vertex="1" parent="dLgP1H3lgliKayTo4XHy-14">
          <mxGeometry x="341" width="49" height="47" as="geometry">
            <mxRectangle width="49" height="47" as="alternateBounds" />
          </mxGeometry>
        </mxCell>
        <mxCell id="dLgP1H3lgliKayTo4XHy-18" style="shape=tableRow;horizontal=0;startSize=0;swimlaneHead=0;swimlaneBody=0;top=0;left=0;bottom=0;right=0;dropTarget=0;collapsible=0;recursiveResize=0;expand=0;fontStyle=0;fillColor=none;strokeColor=inherit;" vertex="1" parent="dLgP1H3lgliKayTo4XHy-1">
          <mxGeometry y="187" width="390" height="47" as="geometry" />
        </mxCell>
        <mxCell id="dLgP1H3lgliKayTo4XHy-70" value="3" style="connectable=0;recursiveResize=0;strokeColor=#6c8ebf;fillColor=#dae8fc;align=center;whiteSpace=wrap;html=1;" vertex="1" parent="dLgP1H3lgliKayTo4XHy-18">
          <mxGeometry width="49" height="47" as="geometry">
            <mxRectangle width="49" height="47" as="alternateBounds" />
          </mxGeometry>
        </mxCell>
        <mxCell id="dLgP1H3lgliKayTo4XHy-62" value="3" style="connectable=0;recursiveResize=0;strokeColor=inherit;fillColor=none;align=center;whiteSpace=wrap;html=1;" vertex="1" parent="dLgP1H3lgliKayTo4XHy-18">
          <mxGeometry x="49" width="49" height="47" as="geometry">
            <mxRectangle width="49" height="47" as="alternateBounds" />
          </mxGeometry>
        </mxCell>
        <mxCell id="dLgP1H3lgliKayTo4XHy-54" value="4" style="connectable=0;recursiveResize=0;strokeColor=inherit;fillColor=none;align=center;whiteSpace=wrap;html=1;" vertex="1" parent="dLgP1H3lgliKayTo4XHy-18">
          <mxGeometry x="98" width="48" height="47" as="geometry">
            <mxRectangle width="48" height="47" as="alternateBounds" />
          </mxGeometry>
        </mxCell>
        <mxCell id="dLgP1H3lgliKayTo4XHy-46" value="5" style="connectable=0;recursiveResize=0;strokeColor=inherit;fillColor=none;align=center;whiteSpace=wrap;html=1;" vertex="1" parent="dLgP1H3lgliKayTo4XHy-18">
          <mxGeometry x="146" width="49" height="47" as="geometry">
            <mxRectangle width="49" height="47" as="alternateBounds" />
          </mxGeometry>
        </mxCell>
        <mxCell id="dLgP1H3lgliKayTo4XHy-38" value="6" style="connectable=0;recursiveResize=0;strokeColor=inherit;fillColor=none;align=center;whiteSpace=wrap;html=1;" vertex="1" parent="dLgP1H3lgliKayTo4XHy-18">
          <mxGeometry x="195" width="49" height="47" as="geometry">
            <mxRectangle width="49" height="47" as="alternateBounds" />
          </mxGeometry>
        </mxCell>
        <mxCell id="dLgP1H3lgliKayTo4XHy-19" value="0" style="connectable=0;recursiveResize=0;strokeColor=#b85450;fillColor=#f8cecc;align=center;whiteSpace=wrap;html=1;" vertex="1" parent="dLgP1H3lgliKayTo4XHy-18">
          <mxGeometry x="244" width="49" height="47" as="geometry">
            <mxRectangle width="49" height="47" as="alternateBounds" />
          </mxGeometry>
        </mxCell>
        <mxCell id="dLgP1H3lgliKayTo4XHy-20" value="1" style="connectable=0;recursiveResize=0;strokeColor=inherit;fillColor=none;align=center;whiteSpace=wrap;html=1;" vertex="1" parent="dLgP1H3lgliKayTo4XHy-18">
          <mxGeometry x="293" width="48" height="47" as="geometry">
            <mxRectangle width="48" height="47" as="alternateBounds" />
          </mxGeometry>
        </mxCell>
        <mxCell id="dLgP1H3lgliKayTo4XHy-21" value="2" style="connectable=0;recursiveResize=0;strokeColor=inherit;fillColor=none;align=center;whiteSpace=wrap;html=1;" vertex="1" parent="dLgP1H3lgliKayTo4XHy-18">
          <mxGeometry x="341" width="49" height="47" as="geometry">
            <mxRectangle width="49" height="47" as="alternateBounds" />
          </mxGeometry>
        </mxCell>
        <mxCell id="dLgP1H3lgliKayTo4XHy-22" style="shape=tableRow;horizontal=0;startSize=0;swimlaneHead=0;swimlaneBody=0;top=0;left=0;bottom=0;right=0;dropTarget=0;collapsible=0;recursiveResize=0;expand=0;fontStyle=0;fillColor=none;strokeColor=inherit;" vertex="1" parent="dLgP1H3lgliKayTo4XHy-1">
          <mxGeometry y="234" width="390" height="47" as="geometry" />
        </mxCell>
        <mxCell id="dLgP1H3lgliKayTo4XHy-71" value="4" style="connectable=0;recursiveResize=0;strokeColor=#6c8ebf;fillColor=#dae8fc;align=center;whiteSpace=wrap;html=1;" vertex="1" parent="dLgP1H3lgliKayTo4XHy-22">
          <mxGeometry width="49" height="47" as="geometry">
            <mxRectangle width="49" height="47" as="alternateBounds" />
          </mxGeometry>
        </mxCell>
        <mxCell id="dLgP1H3lgliKayTo4XHy-63" value="4" style="connectable=0;recursiveResize=0;strokeColor=inherit;fillColor=none;align=center;whiteSpace=wrap;html=1;" vertex="1" parent="dLgP1H3lgliKayTo4XHy-22">
          <mxGeometry x="49" width="49" height="47" as="geometry">
            <mxRectangle width="49" height="47" as="alternateBounds" />
          </mxGeometry>
        </mxCell>
        <mxCell id="dLgP1H3lgliKayTo4XHy-55" value="5" style="connectable=0;recursiveResize=0;strokeColor=inherit;fillColor=none;align=center;whiteSpace=wrap;html=1;" vertex="1" parent="dLgP1H3lgliKayTo4XHy-22">
          <mxGeometry x="98" width="48" height="47" as="geometry">
            <mxRectangle width="48" height="47" as="alternateBounds" />
          </mxGeometry>
        </mxCell>
        <mxCell id="dLgP1H3lgliKayTo4XHy-47" value="6" style="connectable=0;recursiveResize=0;strokeColor=inherit;fillColor=none;align=center;whiteSpace=wrap;html=1;" vertex="1" parent="dLgP1H3lgliKayTo4XHy-22">
          <mxGeometry x="146" width="49" height="47" as="geometry">
            <mxRectangle width="49" height="47" as="alternateBounds" />
          </mxGeometry>
        </mxCell>
        <mxCell id="dLgP1H3lgliKayTo4XHy-39" value="0" style="connectable=0;recursiveResize=0;strokeColor=#b85450;fillColor=#f8cecc;align=center;whiteSpace=wrap;html=1;" vertex="1" parent="dLgP1H3lgliKayTo4XHy-22">
          <mxGeometry x="195" width="49" height="47" as="geometry">
            <mxRectangle width="49" height="47" as="alternateBounds" />
          </mxGeometry>
        </mxCell>
        <mxCell id="dLgP1H3lgliKayTo4XHy-23" value="1" style="connectable=0;recursiveResize=0;strokeColor=inherit;fillColor=none;align=center;whiteSpace=wrap;html=1;" vertex="1" parent="dLgP1H3lgliKayTo4XHy-22">
          <mxGeometry x="244" width="49" height="47" as="geometry">
            <mxRectangle width="49" height="47" as="alternateBounds" />
          </mxGeometry>
        </mxCell>
        <mxCell id="dLgP1H3lgliKayTo4XHy-24" value="2" style="connectable=0;recursiveResize=0;strokeColor=inherit;fillColor=none;align=center;whiteSpace=wrap;html=1;" vertex="1" parent="dLgP1H3lgliKayTo4XHy-22">
          <mxGeometry x="293" width="48" height="47" as="geometry">
            <mxRectangle width="48" height="47" as="alternateBounds" />
          </mxGeometry>
        </mxCell>
        <mxCell id="dLgP1H3lgliKayTo4XHy-25" value="3" style="connectable=0;recursiveResize=0;strokeColor=inherit;fillColor=none;align=center;whiteSpace=wrap;html=1;" vertex="1" parent="dLgP1H3lgliKayTo4XHy-22">
          <mxGeometry x="341" width="49" height="47" as="geometry">
            <mxRectangle width="49" height="47" as="alternateBounds" />
          </mxGeometry>
        </mxCell>
        <mxCell id="dLgP1H3lgliKayTo4XHy-26" style="shape=tableRow;horizontal=0;startSize=0;swimlaneHead=0;swimlaneBody=0;top=0;left=0;bottom=0;right=0;dropTarget=0;collapsible=0;recursiveResize=0;expand=0;fontStyle=0;fillColor=none;strokeColor=inherit;" vertex="1" parent="dLgP1H3lgliKayTo4XHy-1">
          <mxGeometry y="281" width="390" height="47" as="geometry" />
        </mxCell>
        <mxCell id="dLgP1H3lgliKayTo4XHy-72" value="5" style="connectable=0;recursiveResize=0;strokeColor=#6c8ebf;fillColor=#dae8fc;align=center;whiteSpace=wrap;html=1;" vertex="1" parent="dLgP1H3lgliKayTo4XHy-26">
          <mxGeometry width="49" height="47" as="geometry">
            <mxRectangle width="49" height="47" as="alternateBounds" />
          </mxGeometry>
        </mxCell>
        <mxCell id="dLgP1H3lgliKayTo4XHy-64" value="5" style="connectable=0;recursiveResize=0;strokeColor=inherit;fillColor=none;align=center;whiteSpace=wrap;html=1;" vertex="1" parent="dLgP1H3lgliKayTo4XHy-26">
          <mxGeometry x="49" width="49" height="47" as="geometry">
            <mxRectangle width="49" height="47" as="alternateBounds" />
          </mxGeometry>
        </mxCell>
        <mxCell id="dLgP1H3lgliKayTo4XHy-56" value="6" style="connectable=0;recursiveResize=0;strokeColor=inherit;fillColor=none;align=center;whiteSpace=wrap;html=1;" vertex="1" parent="dLgP1H3lgliKayTo4XHy-26">
          <mxGeometry x="98" width="48" height="47" as="geometry">
            <mxRectangle width="48" height="47" as="alternateBounds" />
          </mxGeometry>
        </mxCell>
        <mxCell id="dLgP1H3lgliKayTo4XHy-48" value="0" style="connectable=0;recursiveResize=0;strokeColor=#b85450;fillColor=#f8cecc;align=center;whiteSpace=wrap;html=1;" vertex="1" parent="dLgP1H3lgliKayTo4XHy-26">
          <mxGeometry x="146" width="49" height="47" as="geometry">
            <mxRectangle width="49" height="47" as="alternateBounds" />
          </mxGeometry>
        </mxCell>
        <mxCell id="dLgP1H3lgliKayTo4XHy-40" value="1" style="connectable=0;recursiveResize=0;strokeColor=inherit;fillColor=none;align=center;whiteSpace=wrap;html=1;" vertex="1" parent="dLgP1H3lgliKayTo4XHy-26">
          <mxGeometry x="195" width="49" height="47" as="geometry">
            <mxRectangle width="49" height="47" as="alternateBounds" />
          </mxGeometry>
        </mxCell>
        <mxCell id="dLgP1H3lgliKayTo4XHy-27" value="2" style="connectable=0;recursiveResize=0;strokeColor=inherit;fillColor=none;align=center;whiteSpace=wrap;html=1;" vertex="1" parent="dLgP1H3lgliKayTo4XHy-26">
          <mxGeometry x="244" width="49" height="47" as="geometry">
            <mxRectangle width="49" height="47" as="alternateBounds" />
          </mxGeometry>
        </mxCell>
        <mxCell id="dLgP1H3lgliKayTo4XHy-28" value="3" style="connectable=0;recursiveResize=0;strokeColor=inherit;fillColor=none;align=center;whiteSpace=wrap;html=1;" vertex="1" parent="dLgP1H3lgliKayTo4XHy-26">
          <mxGeometry x="293" width="48" height="47" as="geometry">
            <mxRectangle width="48" height="47" as="alternateBounds" />
          </mxGeometry>
        </mxCell>
        <mxCell id="dLgP1H3lgliKayTo4XHy-29" value="4" style="connectable=0;recursiveResize=0;strokeColor=inherit;fillColor=none;align=center;whiteSpace=wrap;html=1;" vertex="1" parent="dLgP1H3lgliKayTo4XHy-26">
          <mxGeometry x="341" width="49" height="47" as="geometry">
            <mxRectangle width="49" height="47" as="alternateBounds" />
          </mxGeometry>
        </mxCell>
        <mxCell id="dLgP1H3lgliKayTo4XHy-30" style="shape=tableRow;horizontal=0;startSize=0;swimlaneHead=0;swimlaneBody=0;top=0;left=0;bottom=0;right=0;dropTarget=0;collapsible=0;recursiveResize=0;expand=0;fontStyle=0;fillColor=none;strokeColor=inherit;" vertex="1" parent="dLgP1H3lgliKayTo4XHy-1">
          <mxGeometry y="328" width="390" height="47" as="geometry" />
        </mxCell>
        <mxCell id="dLgP1H3lgliKayTo4XHy-73" value="6" style="connectable=0;recursiveResize=0;strokeColor=#6c8ebf;fillColor=#dae8fc;align=center;whiteSpace=wrap;html=1;" vertex="1" parent="dLgP1H3lgliKayTo4XHy-30">
          <mxGeometry width="49" height="47" as="geometry">
            <mxRectangle width="49" height="47" as="alternateBounds" />
          </mxGeometry>
        </mxCell>
        <mxCell id="dLgP1H3lgliKayTo4XHy-65" value="6" style="connectable=0;recursiveResize=0;strokeColor=inherit;fillColor=none;align=center;whiteSpace=wrap;html=1;" vertex="1" parent="dLgP1H3lgliKayTo4XHy-30">
          <mxGeometry x="49" width="49" height="47" as="geometry">
            <mxRectangle width="49" height="47" as="alternateBounds" />
          </mxGeometry>
        </mxCell>
        <mxCell id="dLgP1H3lgliKayTo4XHy-57" value="0" style="connectable=0;recursiveResize=0;strokeColor=#b85450;fillColor=#f8cecc;align=center;whiteSpace=wrap;html=1;" vertex="1" parent="dLgP1H3lgliKayTo4XHy-30">
          <mxGeometry x="98" width="48" height="47" as="geometry">
            <mxRectangle width="48" height="47" as="alternateBounds" />
          </mxGeometry>
        </mxCell>
        <mxCell id="dLgP1H3lgliKayTo4XHy-49" value="1" style="connectable=0;recursiveResize=0;strokeColor=inherit;fillColor=none;align=center;whiteSpace=wrap;html=1;" vertex="1" parent="dLgP1H3lgliKayTo4XHy-30">
          <mxGeometry x="146" width="49" height="47" as="geometry">
            <mxRectangle width="49" height="47" as="alternateBounds" />
          </mxGeometry>
        </mxCell>
        <mxCell id="dLgP1H3lgliKayTo4XHy-41" value="2" style="connectable=0;recursiveResize=0;strokeColor=inherit;fillColor=none;align=center;whiteSpace=wrap;html=1;" vertex="1" parent="dLgP1H3lgliKayTo4XHy-30">
          <mxGeometry x="195" width="49" height="47" as="geometry">
            <mxRectangle width="49" height="47" as="alternateBounds" />
          </mxGeometry>
        </mxCell>
        <mxCell id="dLgP1H3lgliKayTo4XHy-31" value="3" style="connectable=0;recursiveResize=0;strokeColor=inherit;fillColor=none;align=center;whiteSpace=wrap;html=1;" vertex="1" parent="dLgP1H3lgliKayTo4XHy-30">
          <mxGeometry x="244" width="49" height="47" as="geometry">
            <mxRectangle width="49" height="47" as="alternateBounds" />
          </mxGeometry>
        </mxCell>
        <mxCell id="dLgP1H3lgliKayTo4XHy-32" value="4" style="connectable=0;recursiveResize=0;strokeColor=inherit;fillColor=none;align=center;whiteSpace=wrap;html=1;" vertex="1" parent="dLgP1H3lgliKayTo4XHy-30">
          <mxGeometry x="293" width="48" height="47" as="geometry">
            <mxRectangle width="48" height="47" as="alternateBounds" />
          </mxGeometry>
        </mxCell>
        <mxCell id="dLgP1H3lgliKayTo4XHy-33" value="5" style="connectable=0;recursiveResize=0;strokeColor=inherit;fillColor=none;align=center;whiteSpace=wrap;html=1;" vertex="1" parent="dLgP1H3lgliKayTo4XHy-30">
          <mxGeometry x="341" width="49" height="47" as="geometry">
            <mxRectangle width="49" height="47" as="alternateBounds" />
          </mxGeometry>
        </mxCell>
        <mxCell id="dLgP1H3lgliKayTo4XHy-75" value="" style="childLayout=tableLayout;recursiveResize=0;shadow=0;fillColor=none;" vertex="1" parent="1">
          <mxGeometry x="70" y="565" width="390" height="375" as="geometry" />
        </mxCell>
        <mxCell id="dLgP1H3lgliKayTo4XHy-76" value="" style="shape=tableRow;horizontal=0;startSize=0;swimlaneHead=0;swimlaneBody=0;top=0;left=0;bottom=0;right=0;dropTarget=0;collapsible=0;recursiveResize=0;expand=0;fontStyle=0;fillColor=none;strokeColor=inherit;" vertex="1" parent="dLgP1H3lgliKayTo4XHy-75">
          <mxGeometry width="390" height="47" as="geometry" />
        </mxCell>
        <mxCell id="dLgP1H3lgliKayTo4XHy-77" value="乘法" style="connectable=0;recursiveResize=0;strokeColor=inherit;fillColor=none;align=center;whiteSpace=wrap;html=1;" vertex="1" parent="dLgP1H3lgliKayTo4XHy-76">
          <mxGeometry width="49" height="47" as="geometry">
            <mxRectangle width="49" height="47" as="alternateBounds" />
          </mxGeometry>
        </mxCell>
        <mxCell id="dLgP1H3lgliKayTo4XHy-78" value="0" style="connectable=0;recursiveResize=0;strokeColor=#6c8ebf;fillColor=#dae8fc;align=center;whiteSpace=wrap;html=1;" vertex="1" parent="dLgP1H3lgliKayTo4XHy-76">
          <mxGeometry x="49" width="49" height="47" as="geometry">
            <mxRectangle width="49" height="47" as="alternateBounds" />
          </mxGeometry>
        </mxCell>
        <mxCell id="dLgP1H3lgliKayTo4XHy-79" value="1" style="connectable=0;recursiveResize=0;strokeColor=#6c8ebf;fillColor=#dae8fc;align=center;whiteSpace=wrap;html=1;" vertex="1" parent="dLgP1H3lgliKayTo4XHy-76">
          <mxGeometry x="98" width="48" height="47" as="geometry">
            <mxRectangle width="48" height="47" as="alternateBounds" />
          </mxGeometry>
        </mxCell>
        <mxCell id="dLgP1H3lgliKayTo4XHy-80" value="2" style="connectable=0;recursiveResize=0;strokeColor=#6c8ebf;fillColor=#dae8fc;align=center;whiteSpace=wrap;html=1;" vertex="1" parent="dLgP1H3lgliKayTo4XHy-76">
          <mxGeometry x="146" width="49" height="47" as="geometry">
            <mxRectangle width="49" height="47" as="alternateBounds" />
          </mxGeometry>
        </mxCell>
        <mxCell id="dLgP1H3lgliKayTo4XHy-81" value="3" style="connectable=0;recursiveResize=0;strokeColor=#6c8ebf;fillColor=#dae8fc;align=center;whiteSpace=wrap;html=1;" vertex="1" parent="dLgP1H3lgliKayTo4XHy-76">
          <mxGeometry x="195" width="49" height="47" as="geometry">
            <mxRectangle width="49" height="47" as="alternateBounds" />
          </mxGeometry>
        </mxCell>
        <mxCell id="dLgP1H3lgliKayTo4XHy-82" value="4" style="connectable=0;recursiveResize=0;strokeColor=#6c8ebf;fillColor=#dae8fc;align=center;whiteSpace=wrap;html=1;" vertex="1" parent="dLgP1H3lgliKayTo4XHy-76">
          <mxGeometry x="244" width="49" height="47" as="geometry">
            <mxRectangle width="49" height="47" as="alternateBounds" />
          </mxGeometry>
        </mxCell>
        <mxCell id="dLgP1H3lgliKayTo4XHy-83" value="5" style="connectable=0;recursiveResize=0;strokeColor=#6c8ebf;fillColor=#dae8fc;align=center;whiteSpace=wrap;html=1;" vertex="1" parent="dLgP1H3lgliKayTo4XHy-76">
          <mxGeometry x="293" width="48" height="47" as="geometry">
            <mxRectangle width="48" height="47" as="alternateBounds" />
          </mxGeometry>
        </mxCell>
        <mxCell id="dLgP1H3lgliKayTo4XHy-84" value="6" style="connectable=0;recursiveResize=0;strokeColor=#6c8ebf;fillColor=#dae8fc;align=center;whiteSpace=wrap;html=1;" vertex="1" parent="dLgP1H3lgliKayTo4XHy-76">
          <mxGeometry x="341" width="49" height="47" as="geometry">
            <mxRectangle width="49" height="47" as="alternateBounds" />
          </mxGeometry>
        </mxCell>
        <mxCell id="dLgP1H3lgliKayTo4XHy-85" style="shape=tableRow;horizontal=0;startSize=0;swimlaneHead=0;swimlaneBody=0;top=0;left=0;bottom=0;right=0;dropTarget=0;collapsible=0;recursiveResize=0;expand=0;fontStyle=0;fillColor=none;strokeColor=inherit;" vertex="1" parent="dLgP1H3lgliKayTo4XHy-75">
          <mxGeometry y="47" width="390" height="46" as="geometry" />
        </mxCell>
        <mxCell id="dLgP1H3lgliKayTo4XHy-86" value="0" style="connectable=0;recursiveResize=0;strokeColor=#6c8ebf;fillColor=#dae8fc;align=center;whiteSpace=wrap;html=1;" vertex="1" parent="dLgP1H3lgliKayTo4XHy-85">
          <mxGeometry width="49" height="46" as="geometry">
            <mxRectangle width="49" height="46" as="alternateBounds" />
          </mxGeometry>
        </mxCell>
        <mxCell id="dLgP1H3lgliKayTo4XHy-87" value="0" style="connectable=0;recursiveResize=0;strokeColor=inherit;fillColor=none;align=center;whiteSpace=wrap;html=1;" vertex="1" parent="dLgP1H3lgliKayTo4XHy-85">
          <mxGeometry x="49" width="49" height="46" as="geometry">
            <mxRectangle width="49" height="46" as="alternateBounds" />
          </mxGeometry>
        </mxCell>
        <mxCell id="dLgP1H3lgliKayTo4XHy-88" value="0" style="connectable=0;recursiveResize=0;strokeColor=inherit;fillColor=none;align=center;whiteSpace=wrap;html=1;" vertex="1" parent="dLgP1H3lgliKayTo4XHy-85">
          <mxGeometry x="98" width="48" height="46" as="geometry">
            <mxRectangle width="48" height="46" as="alternateBounds" />
          </mxGeometry>
        </mxCell>
        <mxCell id="dLgP1H3lgliKayTo4XHy-89" value="0" style="connectable=0;recursiveResize=0;strokeColor=inherit;fillColor=none;align=center;whiteSpace=wrap;html=1;" vertex="1" parent="dLgP1H3lgliKayTo4XHy-85">
          <mxGeometry x="146" width="49" height="46" as="geometry">
            <mxRectangle width="49" height="46" as="alternateBounds" />
          </mxGeometry>
        </mxCell>
        <mxCell id="dLgP1H3lgliKayTo4XHy-90" value="0" style="connectable=0;recursiveResize=0;strokeColor=inherit;fillColor=none;align=center;whiteSpace=wrap;html=1;" vertex="1" parent="dLgP1H3lgliKayTo4XHy-85">
          <mxGeometry x="195" width="49" height="46" as="geometry">
            <mxRectangle width="49" height="46" as="alternateBounds" />
          </mxGeometry>
        </mxCell>
        <mxCell id="dLgP1H3lgliKayTo4XHy-91" value="0" style="connectable=0;recursiveResize=0;strokeColor=inherit;fillColor=none;align=center;whiteSpace=wrap;html=1;" vertex="1" parent="dLgP1H3lgliKayTo4XHy-85">
          <mxGeometry x="244" width="49" height="46" as="geometry">
            <mxRectangle width="49" height="46" as="alternateBounds" />
          </mxGeometry>
        </mxCell>
        <mxCell id="dLgP1H3lgliKayTo4XHy-92" value="0" style="connectable=0;recursiveResize=0;strokeColor=inherit;fillColor=none;align=center;whiteSpace=wrap;html=1;" vertex="1" parent="dLgP1H3lgliKayTo4XHy-85">
          <mxGeometry x="293" width="48" height="46" as="geometry">
            <mxRectangle width="48" height="46" as="alternateBounds" />
          </mxGeometry>
        </mxCell>
        <mxCell id="dLgP1H3lgliKayTo4XHy-93" value="0" style="connectable=0;recursiveResize=0;strokeColor=inherit;fillColor=none;align=center;whiteSpace=wrap;html=1;" vertex="1" parent="dLgP1H3lgliKayTo4XHy-85">
          <mxGeometry x="341" width="49" height="46" as="geometry">
            <mxRectangle width="49" height="46" as="alternateBounds" />
          </mxGeometry>
        </mxCell>
        <mxCell id="dLgP1H3lgliKayTo4XHy-94" style="shape=tableRow;horizontal=0;startSize=0;swimlaneHead=0;swimlaneBody=0;top=0;left=0;bottom=0;right=0;dropTarget=0;collapsible=0;recursiveResize=0;expand=0;fontStyle=0;fillColor=none;strokeColor=inherit;" vertex="1" parent="dLgP1H3lgliKayTo4XHy-75">
          <mxGeometry y="93" width="390" height="47" as="geometry" />
        </mxCell>
        <mxCell id="dLgP1H3lgliKayTo4XHy-95" value="1" style="connectable=0;recursiveResize=0;strokeColor=#6c8ebf;fillColor=#dae8fc;align=center;whiteSpace=wrap;html=1;" vertex="1" parent="dLgP1H3lgliKayTo4XHy-94">
          <mxGeometry width="49" height="47" as="geometry">
            <mxRectangle width="49" height="47" as="alternateBounds" />
          </mxGeometry>
        </mxCell>
        <mxCell id="dLgP1H3lgliKayTo4XHy-96" value="0" style="connectable=0;recursiveResize=0;strokeColor=inherit;fillColor=none;align=center;whiteSpace=wrap;html=1;" vertex="1" parent="dLgP1H3lgliKayTo4XHy-94">
          <mxGeometry x="49" width="49" height="47" as="geometry">
            <mxRectangle width="49" height="47" as="alternateBounds" />
          </mxGeometry>
        </mxCell>
        <mxCell id="dLgP1H3lgliKayTo4XHy-97" value="1" style="connectable=0;recursiveResize=0;strokeColor=#b85450;fillColor=#f8cecc;align=center;whiteSpace=wrap;html=1;" vertex="1" parent="dLgP1H3lgliKayTo4XHy-94">
          <mxGeometry x="98" width="48" height="47" as="geometry">
            <mxRectangle width="48" height="47" as="alternateBounds" />
          </mxGeometry>
        </mxCell>
        <mxCell id="dLgP1H3lgliKayTo4XHy-98" value="2" style="connectable=0;recursiveResize=0;strokeColor=inherit;fillColor=none;align=center;whiteSpace=wrap;html=1;" vertex="1" parent="dLgP1H3lgliKayTo4XHy-94">
          <mxGeometry x="146" width="49" height="47" as="geometry">
            <mxRectangle width="49" height="47" as="alternateBounds" />
          </mxGeometry>
        </mxCell>
        <mxCell id="dLgP1H3lgliKayTo4XHy-99" value="3" style="connectable=0;recursiveResize=0;strokeColor=inherit;fillColor=none;align=center;whiteSpace=wrap;html=1;" vertex="1" parent="dLgP1H3lgliKayTo4XHy-94">
          <mxGeometry x="195" width="49" height="47" as="geometry">
            <mxRectangle width="49" height="47" as="alternateBounds" />
          </mxGeometry>
        </mxCell>
        <mxCell id="dLgP1H3lgliKayTo4XHy-100" value="4" style="connectable=0;recursiveResize=0;strokeColor=inherit;fillColor=none;align=center;whiteSpace=wrap;html=1;" vertex="1" parent="dLgP1H3lgliKayTo4XHy-94">
          <mxGeometry x="244" width="49" height="47" as="geometry">
            <mxRectangle width="49" height="47" as="alternateBounds" />
          </mxGeometry>
        </mxCell>
        <mxCell id="dLgP1H3lgliKayTo4XHy-101" value="5" style="connectable=0;recursiveResize=0;strokeColor=inherit;fillColor=none;align=center;whiteSpace=wrap;html=1;" vertex="1" parent="dLgP1H3lgliKayTo4XHy-94">
          <mxGeometry x="293" width="48" height="47" as="geometry">
            <mxRectangle width="48" height="47" as="alternateBounds" />
          </mxGeometry>
        </mxCell>
        <mxCell id="dLgP1H3lgliKayTo4XHy-102" value="6" style="connectable=0;recursiveResize=0;strokeColor=inherit;fillColor=none;align=center;whiteSpace=wrap;html=1;" vertex="1" parent="dLgP1H3lgliKayTo4XHy-94">
          <mxGeometry x="341" width="49" height="47" as="geometry">
            <mxRectangle width="49" height="47" as="alternateBounds" />
          </mxGeometry>
        </mxCell>
        <mxCell id="dLgP1H3lgliKayTo4XHy-103" style="shape=tableRow;horizontal=0;startSize=0;swimlaneHead=0;swimlaneBody=0;top=0;left=0;bottom=0;right=0;dropTarget=0;collapsible=0;recursiveResize=0;expand=0;fontStyle=0;fillColor=none;strokeColor=inherit;" vertex="1" parent="dLgP1H3lgliKayTo4XHy-75">
          <mxGeometry y="140" width="390" height="47" as="geometry" />
        </mxCell>
        <mxCell id="dLgP1H3lgliKayTo4XHy-104" value="2" style="connectable=0;recursiveResize=0;strokeColor=#6c8ebf;fillColor=#dae8fc;align=center;whiteSpace=wrap;html=1;" vertex="1" parent="dLgP1H3lgliKayTo4XHy-103">
          <mxGeometry width="49" height="47" as="geometry">
            <mxRectangle width="49" height="47" as="alternateBounds" />
          </mxGeometry>
        </mxCell>
        <mxCell id="dLgP1H3lgliKayTo4XHy-105" value="0" style="connectable=0;recursiveResize=0;strokeColor=inherit;fillColor=none;align=center;whiteSpace=wrap;html=1;" vertex="1" parent="dLgP1H3lgliKayTo4XHy-103">
          <mxGeometry x="49" width="49" height="47" as="geometry">
            <mxRectangle width="49" height="47" as="alternateBounds" />
          </mxGeometry>
        </mxCell>
        <mxCell id="dLgP1H3lgliKayTo4XHy-106" value="2" style="connectable=0;recursiveResize=0;strokeColor=inherit;fillColor=none;align=center;whiteSpace=wrap;html=1;" vertex="1" parent="dLgP1H3lgliKayTo4XHy-103">
          <mxGeometry x="98" width="48" height="47" as="geometry">
            <mxRectangle width="48" height="47" as="alternateBounds" />
          </mxGeometry>
        </mxCell>
        <mxCell id="dLgP1H3lgliKayTo4XHy-107" value="4" style="connectable=0;recursiveResize=0;strokeColor=inherit;fillColor=none;align=center;whiteSpace=wrap;html=1;" vertex="1" parent="dLgP1H3lgliKayTo4XHy-103">
          <mxGeometry x="146" width="49" height="47" as="geometry">
            <mxRectangle width="49" height="47" as="alternateBounds" />
          </mxGeometry>
        </mxCell>
        <mxCell id="dLgP1H3lgliKayTo4XHy-108" value="6" style="connectable=0;recursiveResize=0;strokeColor=inherit;fillColor=none;align=center;whiteSpace=wrap;html=1;" vertex="1" parent="dLgP1H3lgliKayTo4XHy-103">
          <mxGeometry x="195" width="49" height="47" as="geometry">
            <mxRectangle width="49" height="47" as="alternateBounds" />
          </mxGeometry>
        </mxCell>
        <mxCell id="dLgP1H3lgliKayTo4XHy-109" value="1" style="connectable=0;recursiveResize=0;strokeColor=#b85450;fillColor=#f8cecc;align=center;whiteSpace=wrap;html=1;" vertex="1" parent="dLgP1H3lgliKayTo4XHy-103">
          <mxGeometry x="244" width="49" height="47" as="geometry">
            <mxRectangle width="49" height="47" as="alternateBounds" />
          </mxGeometry>
        </mxCell>
        <mxCell id="dLgP1H3lgliKayTo4XHy-110" value="3" style="connectable=0;recursiveResize=0;strokeColor=inherit;fillColor=none;align=center;whiteSpace=wrap;html=1;" vertex="1" parent="dLgP1H3lgliKayTo4XHy-103">
          <mxGeometry x="293" width="48" height="47" as="geometry">
            <mxRectangle width="48" height="47" as="alternateBounds" />
          </mxGeometry>
        </mxCell>
        <mxCell id="dLgP1H3lgliKayTo4XHy-111" value="5" style="connectable=0;recursiveResize=0;strokeColor=inherit;fillColor=none;align=center;whiteSpace=wrap;html=1;" vertex="1" parent="dLgP1H3lgliKayTo4XHy-103">
          <mxGeometry x="341" width="49" height="47" as="geometry">
            <mxRectangle width="49" height="47" as="alternateBounds" />
          </mxGeometry>
        </mxCell>
        <mxCell id="dLgP1H3lgliKayTo4XHy-112" style="shape=tableRow;horizontal=0;startSize=0;swimlaneHead=0;swimlaneBody=0;top=0;left=0;bottom=0;right=0;dropTarget=0;collapsible=0;recursiveResize=0;expand=0;fontStyle=0;fillColor=none;strokeColor=inherit;" vertex="1" parent="dLgP1H3lgliKayTo4XHy-75">
          <mxGeometry y="187" width="390" height="47" as="geometry" />
        </mxCell>
        <mxCell id="dLgP1H3lgliKayTo4XHy-113" value="3" style="connectable=0;recursiveResize=0;strokeColor=#6c8ebf;fillColor=#dae8fc;align=center;whiteSpace=wrap;html=1;" vertex="1" parent="dLgP1H3lgliKayTo4XHy-112">
          <mxGeometry width="49" height="47" as="geometry">
            <mxRectangle width="49" height="47" as="alternateBounds" />
          </mxGeometry>
        </mxCell>
        <mxCell id="dLgP1H3lgliKayTo4XHy-114" value="0" style="connectable=0;recursiveResize=0;strokeColor=inherit;fillColor=none;align=center;whiteSpace=wrap;html=1;" vertex="1" parent="dLgP1H3lgliKayTo4XHy-112">
          <mxGeometry x="49" width="49" height="47" as="geometry">
            <mxRectangle width="49" height="47" as="alternateBounds" />
          </mxGeometry>
        </mxCell>
        <mxCell id="dLgP1H3lgliKayTo4XHy-115" value="3" style="connectable=0;recursiveResize=0;strokeColor=inherit;fillColor=none;align=center;whiteSpace=wrap;html=1;" vertex="1" parent="dLgP1H3lgliKayTo4XHy-112">
          <mxGeometry x="98" width="48" height="47" as="geometry">
            <mxRectangle width="48" height="47" as="alternateBounds" />
          </mxGeometry>
        </mxCell>
        <mxCell id="dLgP1H3lgliKayTo4XHy-116" value="6" style="connectable=0;recursiveResize=0;strokeColor=inherit;fillColor=none;align=center;whiteSpace=wrap;html=1;" vertex="1" parent="dLgP1H3lgliKayTo4XHy-112">
          <mxGeometry x="146" width="49" height="47" as="geometry">
            <mxRectangle width="49" height="47" as="alternateBounds" />
          </mxGeometry>
        </mxCell>
        <mxCell id="dLgP1H3lgliKayTo4XHy-117" value="2" style="connectable=0;recursiveResize=0;strokeColor=inherit;fillColor=none;align=center;whiteSpace=wrap;html=1;" vertex="1" parent="dLgP1H3lgliKayTo4XHy-112">
          <mxGeometry x="195" width="49" height="47" as="geometry">
            <mxRectangle width="49" height="47" as="alternateBounds" />
          </mxGeometry>
        </mxCell>
        <mxCell id="dLgP1H3lgliKayTo4XHy-118" value="5" style="connectable=0;recursiveResize=0;strokeColor=inherit;fillColor=none;align=center;whiteSpace=wrap;html=1;" vertex="1" parent="dLgP1H3lgliKayTo4XHy-112">
          <mxGeometry x="244" width="49" height="47" as="geometry">
            <mxRectangle width="49" height="47" as="alternateBounds" />
          </mxGeometry>
        </mxCell>
        <mxCell id="dLgP1H3lgliKayTo4XHy-119" value="1" style="connectable=0;recursiveResize=0;strokeColor=#b85450;fillColor=#f8cecc;align=center;whiteSpace=wrap;html=1;" vertex="1" parent="dLgP1H3lgliKayTo4XHy-112">
          <mxGeometry x="293" width="48" height="47" as="geometry">
            <mxRectangle width="48" height="47" as="alternateBounds" />
          </mxGeometry>
        </mxCell>
        <mxCell id="dLgP1H3lgliKayTo4XHy-120" value="4" style="connectable=0;recursiveResize=0;strokeColor=inherit;fillColor=none;align=center;whiteSpace=wrap;html=1;" vertex="1" parent="dLgP1H3lgliKayTo4XHy-112">
          <mxGeometry x="341" width="49" height="47" as="geometry">
            <mxRectangle width="49" height="47" as="alternateBounds" />
          </mxGeometry>
        </mxCell>
        <mxCell id="dLgP1H3lgliKayTo4XHy-121" style="shape=tableRow;horizontal=0;startSize=0;swimlaneHead=0;swimlaneBody=0;top=0;left=0;bottom=0;right=0;dropTarget=0;collapsible=0;recursiveResize=0;expand=0;fontStyle=0;fillColor=none;strokeColor=inherit;" vertex="1" parent="dLgP1H3lgliKayTo4XHy-75">
          <mxGeometry y="234" width="390" height="47" as="geometry" />
        </mxCell>
        <mxCell id="dLgP1H3lgliKayTo4XHy-122" value="4" style="connectable=0;recursiveResize=0;strokeColor=#6c8ebf;fillColor=#dae8fc;align=center;whiteSpace=wrap;html=1;" vertex="1" parent="dLgP1H3lgliKayTo4XHy-121">
          <mxGeometry width="49" height="47" as="geometry">
            <mxRectangle width="49" height="47" as="alternateBounds" />
          </mxGeometry>
        </mxCell>
        <mxCell id="dLgP1H3lgliKayTo4XHy-123" value="0" style="connectable=0;recursiveResize=0;strokeColor=inherit;fillColor=none;align=center;whiteSpace=wrap;html=1;" vertex="1" parent="dLgP1H3lgliKayTo4XHy-121">
          <mxGeometry x="49" width="49" height="47" as="geometry">
            <mxRectangle width="49" height="47" as="alternateBounds" />
          </mxGeometry>
        </mxCell>
        <mxCell id="dLgP1H3lgliKayTo4XHy-124" value="4" style="connectable=0;recursiveResize=0;strokeColor=inherit;fillColor=none;align=center;whiteSpace=wrap;html=1;" vertex="1" parent="dLgP1H3lgliKayTo4XHy-121">
          <mxGeometry x="98" width="48" height="47" as="geometry">
            <mxRectangle width="48" height="47" as="alternateBounds" />
          </mxGeometry>
        </mxCell>
        <mxCell id="dLgP1H3lgliKayTo4XHy-125" value="1" style="connectable=0;recursiveResize=0;strokeColor=#b85450;fillColor=#f8cecc;align=center;whiteSpace=wrap;html=1;" vertex="1" parent="dLgP1H3lgliKayTo4XHy-121">
          <mxGeometry x="146" width="49" height="47" as="geometry">
            <mxRectangle width="49" height="47" as="alternateBounds" />
          </mxGeometry>
        </mxCell>
        <mxCell id="dLgP1H3lgliKayTo4XHy-126" value="5" style="connectable=0;recursiveResize=0;strokeColor=inherit;fillColor=none;align=center;whiteSpace=wrap;html=1;" vertex="1" parent="dLgP1H3lgliKayTo4XHy-121">
          <mxGeometry x="195" width="49" height="47" as="geometry">
            <mxRectangle width="49" height="47" as="alternateBounds" />
          </mxGeometry>
        </mxCell>
        <mxCell id="dLgP1H3lgliKayTo4XHy-127" value="2" style="connectable=0;recursiveResize=0;strokeColor=inherit;fillColor=none;align=center;whiteSpace=wrap;html=1;" vertex="1" parent="dLgP1H3lgliKayTo4XHy-121">
          <mxGeometry x="244" width="49" height="47" as="geometry">
            <mxRectangle width="49" height="47" as="alternateBounds" />
          </mxGeometry>
        </mxCell>
        <mxCell id="dLgP1H3lgliKayTo4XHy-128" value="6" style="connectable=0;recursiveResize=0;strokeColor=inherit;fillColor=none;align=center;whiteSpace=wrap;html=1;" vertex="1" parent="dLgP1H3lgliKayTo4XHy-121">
          <mxGeometry x="293" width="48" height="47" as="geometry">
            <mxRectangle width="48" height="47" as="alternateBounds" />
          </mxGeometry>
        </mxCell>
        <mxCell id="dLgP1H3lgliKayTo4XHy-129" value="3" style="connectable=0;recursiveResize=0;strokeColor=inherit;fillColor=none;align=center;whiteSpace=wrap;html=1;" vertex="1" parent="dLgP1H3lgliKayTo4XHy-121">
          <mxGeometry x="341" width="49" height="47" as="geometry">
            <mxRectangle width="49" height="47" as="alternateBounds" />
          </mxGeometry>
        </mxCell>
        <mxCell id="dLgP1H3lgliKayTo4XHy-130" style="shape=tableRow;horizontal=0;startSize=0;swimlaneHead=0;swimlaneBody=0;top=0;left=0;bottom=0;right=0;dropTarget=0;collapsible=0;recursiveResize=0;expand=0;fontStyle=0;fillColor=none;strokeColor=inherit;" vertex="1" parent="dLgP1H3lgliKayTo4XHy-75">
          <mxGeometry y="281" width="390" height="47" as="geometry" />
        </mxCell>
        <mxCell id="dLgP1H3lgliKayTo4XHy-131" value="5" style="connectable=0;recursiveResize=0;strokeColor=#6c8ebf;fillColor=#dae8fc;align=center;whiteSpace=wrap;html=1;" vertex="1" parent="dLgP1H3lgliKayTo4XHy-130">
          <mxGeometry width="49" height="47" as="geometry">
            <mxRectangle width="49" height="47" as="alternateBounds" />
          </mxGeometry>
        </mxCell>
        <mxCell id="dLgP1H3lgliKayTo4XHy-132" value="0" style="connectable=0;recursiveResize=0;strokeColor=inherit;fillColor=none;align=center;whiteSpace=wrap;html=1;" vertex="1" parent="dLgP1H3lgliKayTo4XHy-130">
          <mxGeometry x="49" width="49" height="47" as="geometry">
            <mxRectangle width="49" height="47" as="alternateBounds" />
          </mxGeometry>
        </mxCell>
        <mxCell id="dLgP1H3lgliKayTo4XHy-133" value="5" style="connectable=0;recursiveResize=0;strokeColor=inherit;fillColor=none;align=center;whiteSpace=wrap;html=1;" vertex="1" parent="dLgP1H3lgliKayTo4XHy-130">
          <mxGeometry x="98" width="48" height="47" as="geometry">
            <mxRectangle width="48" height="47" as="alternateBounds" />
          </mxGeometry>
        </mxCell>
        <mxCell id="dLgP1H3lgliKayTo4XHy-134" value="3" style="connectable=0;recursiveResize=0;strokeColor=inherit;fillColor=none;align=center;whiteSpace=wrap;html=1;" vertex="1" parent="dLgP1H3lgliKayTo4XHy-130">
          <mxGeometry x="146" width="49" height="47" as="geometry">
            <mxRectangle width="49" height="47" as="alternateBounds" />
          </mxGeometry>
        </mxCell>
        <mxCell id="dLgP1H3lgliKayTo4XHy-135" value="1" style="connectable=0;recursiveResize=0;strokeColor=#b85450;fillColor=#f8cecc;align=center;whiteSpace=wrap;html=1;" vertex="1" parent="dLgP1H3lgliKayTo4XHy-130">
          <mxGeometry x="195" width="49" height="47" as="geometry">
            <mxRectangle width="49" height="47" as="alternateBounds" />
          </mxGeometry>
        </mxCell>
        <mxCell id="dLgP1H3lgliKayTo4XHy-136" value="6" style="connectable=0;recursiveResize=0;strokeColor=inherit;fillColor=none;align=center;whiteSpace=wrap;html=1;" vertex="1" parent="dLgP1H3lgliKayTo4XHy-130">
          <mxGeometry x="244" width="49" height="47" as="geometry">
            <mxRectangle width="49" height="47" as="alternateBounds" />
          </mxGeometry>
        </mxCell>
        <mxCell id="dLgP1H3lgliKayTo4XHy-137" value="4" style="connectable=0;recursiveResize=0;strokeColor=inherit;fillColor=none;align=center;whiteSpace=wrap;html=1;" vertex="1" parent="dLgP1H3lgliKayTo4XHy-130">
          <mxGeometry x="293" width="48" height="47" as="geometry">
            <mxRectangle width="48" height="47" as="alternateBounds" />
          </mxGeometry>
        </mxCell>
        <mxCell id="dLgP1H3lgliKayTo4XHy-138" value="2" style="connectable=0;recursiveResize=0;strokeColor=inherit;fillColor=none;align=center;whiteSpace=wrap;html=1;" vertex="1" parent="dLgP1H3lgliKayTo4XHy-130">
          <mxGeometry x="341" width="49" height="47" as="geometry">
            <mxRectangle width="49" height="47" as="alternateBounds" />
          </mxGeometry>
        </mxCell>
        <mxCell id="dLgP1H3lgliKayTo4XHy-139" style="shape=tableRow;horizontal=0;startSize=0;swimlaneHead=0;swimlaneBody=0;top=0;left=0;bottom=0;right=0;dropTarget=0;collapsible=0;recursiveResize=0;expand=0;fontStyle=0;fillColor=none;strokeColor=inherit;" vertex="1" parent="dLgP1H3lgliKayTo4XHy-75">
          <mxGeometry y="328" width="390" height="47" as="geometry" />
        </mxCell>
        <mxCell id="dLgP1H3lgliKayTo4XHy-140" value="6" style="connectable=0;recursiveResize=0;strokeColor=#6c8ebf;fillColor=#dae8fc;align=center;whiteSpace=wrap;html=1;" vertex="1" parent="dLgP1H3lgliKayTo4XHy-139">
          <mxGeometry width="49" height="47" as="geometry">
            <mxRectangle width="49" height="47" as="alternateBounds" />
          </mxGeometry>
        </mxCell>
        <mxCell id="dLgP1H3lgliKayTo4XHy-141" value="0" style="connectable=0;recursiveResize=0;strokeColor=inherit;fillColor=none;align=center;whiteSpace=wrap;html=1;" vertex="1" parent="dLgP1H3lgliKayTo4XHy-139">
          <mxGeometry x="49" width="49" height="47" as="geometry">
            <mxRectangle width="49" height="47" as="alternateBounds" />
          </mxGeometry>
        </mxCell>
        <mxCell id="dLgP1H3lgliKayTo4XHy-142" value="6" style="connectable=0;recursiveResize=0;strokeColor=inherit;fillColor=none;align=center;whiteSpace=wrap;html=1;" vertex="1" parent="dLgP1H3lgliKayTo4XHy-139">
          <mxGeometry x="98" width="48" height="47" as="geometry">
            <mxRectangle width="48" height="47" as="alternateBounds" />
          </mxGeometry>
        </mxCell>
        <mxCell id="dLgP1H3lgliKayTo4XHy-143" value="5" style="connectable=0;recursiveResize=0;strokeColor=inherit;fillColor=none;align=center;whiteSpace=wrap;html=1;" vertex="1" parent="dLgP1H3lgliKayTo4XHy-139">
          <mxGeometry x="146" width="49" height="47" as="geometry">
            <mxRectangle width="49" height="47" as="alternateBounds" />
          </mxGeometry>
        </mxCell>
        <mxCell id="dLgP1H3lgliKayTo4XHy-144" value="4" style="connectable=0;recursiveResize=0;strokeColor=inherit;fillColor=none;align=center;whiteSpace=wrap;html=1;" vertex="1" parent="dLgP1H3lgliKayTo4XHy-139">
          <mxGeometry x="195" width="49" height="47" as="geometry">
            <mxRectangle width="49" height="47" as="alternateBounds" />
          </mxGeometry>
        </mxCell>
        <mxCell id="dLgP1H3lgliKayTo4XHy-145" value="3" style="connectable=0;recursiveResize=0;strokeColor=inherit;fillColor=none;align=center;whiteSpace=wrap;html=1;" vertex="1" parent="dLgP1H3lgliKayTo4XHy-139">
          <mxGeometry x="244" width="49" height="47" as="geometry">
            <mxRectangle width="49" height="47" as="alternateBounds" />
          </mxGeometry>
        </mxCell>
        <mxCell id="dLgP1H3lgliKayTo4XHy-146" value="2" style="connectable=0;recursiveResize=0;strokeColor=inherit;fillColor=none;align=center;whiteSpace=wrap;html=1;" vertex="1" parent="dLgP1H3lgliKayTo4XHy-139">
          <mxGeometry x="293" width="48" height="47" as="geometry">
            <mxRectangle width="48" height="47" as="alternateBounds" />
          </mxGeometry>
        </mxCell>
        <mxCell id="dLgP1H3lgliKayTo4XHy-147" value="1" style="connectable=0;recursiveResize=0;strokeColor=#b85450;fillColor=#f8cecc;align=center;whiteSpace=wrap;html=1;" vertex="1" parent="dLgP1H3lgliKayTo4XHy-139">
          <mxGeometry x="341" width="49" height="47" as="geometry">
            <mxRectangle width="49" height="47" as="alternateBounds" />
          </mxGeometry>
        </mxCell>
      </root>
    </mxGraphModel>
  </diagram>
</mxfile>
